<?xml version="1.0" encoding="UTF-8"?>
<!DOCTYPE svg PUBLIC "-//W3C//DTD SVG 1.1//EN" "http://www.w3.org/Graphics/SVG/1.1/DTD/svg11.dtd">
<svg xmlns="http://www.w3.org/2000/svg" version="1.1" width="301px" height="301px" style="shape-rendering:geometricPrecision; text-rendering:geometricPrecision; image-rendering:optimizeQuality; fill-rule:evenodd; clip-rule:evenodd" xmlns:xlink="http://www.w3.org/1999/xlink">
<g><path style="opacity:0.037" fill="#fefefd" d="M 179.5,9.5 C 200.632,5.21044 216.298,12.3771 226.5,31C 230.722,32.4474 234.888,33.9474 239,35.5C 239.414,35.0426 239.914,34.7093 240.5,34.5C 249.95,39.0814 256.95,46.0814 261.5,55.5C 268.09,57.9896 274.756,60.4896 281.5,63C 283.667,66.5 286.5,69.3333 290,71.5C 291.312,74.4408 292.812,77.2742 294.5,80C 293.941,80.7247 293.608,81.5581 293.5,82.5C 296.167,89.8333 296.167,97.1667 293.5,104.5C 293.68,105.554 294.013,106.554 294.5,107.5C 293.337,109.285 292.67,111.285 292.5,113.5C 294.242,120.177 295.908,127.177 297.5,134.5C 295.945,141.632 294.279,148.465 292.5,155C 294.607,161.332 296.273,168.165 297.5,175.5C 296.53,180.709 295.197,185.875 293.5,191C 293.645,191.772 293.978,192.439 294.5,193C 290.548,198.289 286.214,203.289 281.5,208C 270.055,215.269 258.055,221.602 245.5,227C 237.52,232.369 229.02,236.869 220,240.5C 206.501,248.925 192.668,256.092 178.5,262C 177.5,263 176.5,264 175.5,265C 162.677,270.937 150.177,277.437 138,284.5C 124.21,291.616 109.71,293.45 94.5,290C 88.592,287.587 83.4253,284.087 79,279.5C 75.7369,274.522 73.2369,269.189 71.5,263.5C 72.8151,257.97 72.8151,252.47 71.5,247C 76.6339,239.165 76.6339,231.332 71.5,223.5C 72.8333,217.5 72.8333,211.5 71.5,205.5C 75.667,199.637 76.0003,193.637 72.5,187.5C 71.5,187.167 70.8333,186.5 70.5,185.5C 63.8632,183.429 57.3632,181.096 51,178.5C 46.3398,175.175 43.0065,170.842 41,165.5C 39.5,164 38,162.5 36.5,161C 10.6286,156.628 -0.371429,141.461 3.5,115.5C 4.0292,112.743 5.0292,110.243 6.5,108C 6.16667,107.667 5.83333,107.333 5.5,107C 14.9589,94.2283 27.2922,85.2283 42.5,80C 44.5161,79.1005 46.1828,77.7672 47.5,76C 83.1941,58.139 118.194,39.8057 152.5,21C 161.425,16.7036 170.425,12.8703 179.5,9.5 Z"/></g>
<g><path style="opacity:0.99" fill="#69fe37" d="M 143.5,87.5 C 113.451,103.256 83.4512,119.089 53.5,135C 50.2039,136.511 46.8706,137.677 43.5,138.5C 40.5,138.5 37.5,138.5 34.5,138.5C 32.7162,138.107 31.0495,137.441 29.5,136.5C 29.5,135.833 29.1667,135.5 28.5,135.5C 21.8942,125.413 23.5609,116.913 33.5,110C 51.7447,100.768 69.7447,91.2675 87.5,81.5C 111.529,69.7233 135.196,57.3899 158.5,44.5C 166.234,41.4659 173.568,37.6326 180.5,33C 189.384,27.3641 197.217,28.5308 204,36.5C 208.343,44.9327 206.843,52.0994 199.5,58C 180.719,67.7497 162.052,77.583 143.5,87.5 Z"/></g>
<g><path style="opacity:0.99" fill="#69fe37" d="M 60.5,155.5 C 59.1667,150.833 59.1667,146.167 60.5,141.5C 61.0283,140.279 61.695,139.113 62.5,138C 66.1667,135.667 69.8333,133.333 73.5,131C 103.356,116.242 132.689,100.742 161.5,84.5C 179.531,76.0939 197.198,66.9273 214.5,57C 224.581,50.9382 232.748,52.7716 239,62.5C 241.449,70.2749 239.616,76.7749 233.5,82C 182.842,108.662 132.176,135.329 81.5,162C 78.382,163.792 75.0487,164.458 71.5,164C 66.3233,163.083 62.6567,160.249 60.5,155.5 Z"/></g>
<g><path style="opacity:0.991" fill="#fefe0b" d="M 180.5,152.5 C 168.847,157.992 157.514,163.992 146.5,170.5C 136.484,175.014 126.65,180.014 117,185.5C 107.821,190.666 100.154,189 94,180.5C 90.5434,171.542 92.7101,164.375 100.5,159C 121.179,148.623 141.512,137.79 161.5,126.5C 162.791,126.737 163.791,126.404 164.5,125.5C 187.439,113.866 210.105,101.866 232.5,89.5C 240.63,85.8528 248.63,82.0194 256.5,78C 272.757,80.0096 277.424,88.5096 270.5,103.5C 266.97,106.195 263.304,108.695 259.5,111C 232.966,124.76 206.633,138.594 180.5,152.5 Z"/></g>
<g><path style="opacity:0.991" fill="#fe3705" d="M 156.5,206.5 C 140.567,214.383 124.734,222.383 109,230.5C 96.5693,228.32 91.5693,220.986 94,208.5C 95.7932,205.705 97.9598,203.205 100.5,201C 114.165,194.292 127.498,187.125 140.5,179.5C 159.259,170.662 177.593,160.995 195.5,150.5C 214.048,142.031 232.215,132.697 250,122.5C 258.766,117.511 266.433,118.844 273,126.5C 277.16,137.725 273.66,145.892 262.5,151C 226.818,169.044 191.485,187.544 156.5,206.5 Z"/></g>
<g><path style="opacity:0.431" fill="#97fe74" d="M 34.5,138.5 C 37.5,138.5 40.5,138.5 43.5,138.5C 43.5,138.833 43.5,139.167 43.5,139.5C 40.1456,141.113 37.1456,140.78 34.5,138.5 Z"/></g>
<g><path style="opacity:0.267" fill="#97fe72" d="M 60.5,141.5 C 59.1667,146.167 59.1667,150.833 60.5,155.5C 57.8333,150.833 57.8333,146.167 60.5,141.5 Z"/></g>
<g><path style="opacity:0.991" fill="#fe3705" d="M 231.5,209.5 C 217.663,215.702 204.329,222.702 191.5,230.5C 169.179,241.327 147.179,252.66 125.5,264.5C 120.29,267.522 114.79,269.855 109,271.5C 95.2065,268.578 90.8732,260.578 96,247.5C 97.8333,245.667 99.6667,243.833 101.5,242C 152.777,215.43 204.11,188.764 255.5,162C 264.724,160.618 271.224,164.118 275,172.5C 275.843,180.326 273.01,186.492 266.5,191C 254.5,196.665 242.834,202.832 231.5,209.5 Z"/></g>
</svg>
